<?xml version="1.0" encoding="UTF-8" standalone="no"?>
<!DOCTYPE svg PUBLIC "-//W3C//DTD SVG 1.1//EN" "http://www.w3.org/Graphics/SVG/1.1/DTD/svg11.dtd">
<svg width="100%" height="100%" viewBox="0 0 24 25" version="1.1" xmlns="http://www.w3.org/2000/svg" xmlns:xlink="http://www.w3.org/1999/xlink" xml:space="preserve" xmlns:serif="http://www.serif.com/" style="fill-rule:evenodd;clip-rule:evenodd;stroke-linejoin:round;stroke-miterlimit:2;">
    <path d="M2,1C1.448,1 1,1.448 1,2C1,2.552 1.448,3 2,3L2,1ZM4.222,2L5.203,1.803C5.109,1.336 4.699,1 4.222,1L4.222,2ZM3.686,4.408C3.795,4.949 4.322,5.3 4.864,5.191C5.405,5.082 5.756,4.555 5.647,4.013L3.686,4.408ZM6.444,12.053C5.892,12.053 5.444,12.5 5.444,13.053C5.444,13.605 5.892,14.053 6.444,14.053L6.444,12.053ZM17.556,13.053L17.556,14.053C17.934,14.053 18.279,13.839 18.449,13.502L17.556,13.053ZM22,4.211L22.894,4.66C23.049,4.35 23.033,3.981 22.851,3.686C22.669,3.39 22.347,3.211 22,3.211L22,4.211ZM4.667,3.211C4.114,3.211 3.667,3.658 3.667,4.211C3.667,4.763 4.114,5.211 4.667,5.211L4.667,3.211ZM5.464,13.25C5.573,13.791 6.1,14.142 6.642,14.033C7.183,13.924 7.534,13.397 7.425,12.855L5.464,13.25ZM5.647,4.013C5.538,3.472 5.011,3.121 4.47,3.23C3.928,3.339 3.577,3.866 3.686,4.408L5.647,4.013ZM7.15,13.762C7.541,13.372 7.543,12.739 7.153,12.347C6.764,11.956 6.131,11.954 5.739,12.344L7.15,13.762ZM3.897,15.587L3.191,14.878L3.897,15.587ZM17.556,18.474C18.108,18.474 18.556,18.026 18.556,17.474C18.556,16.921 18.108,16.474 17.556,16.474L17.556,18.474ZM17.556,17.474L16.556,17.474C16.556,17.74 16.662,17.995 16.85,18.183L17.556,17.474ZM19.778,19.684L19.073,20.393C19.26,20.579 19.514,20.684 19.778,20.684L19.778,19.684ZM8.667,19.684L7.802,19.182C7.713,19.334 7.667,19.508 7.667,19.684L8.667,19.684ZM8.667,21.895L7.667,21.895C7.667,22.071 7.713,22.244 7.802,22.397L8.667,21.895ZM2,3L4.222,3L4.222,1L2,1L2,3ZM3.242,2.197L3.686,4.408L5.647,4.013L5.203,1.803L3.242,2.197ZM6.444,14.053L17.556,14.053L17.556,12.053L6.444,12.053L6.444,14.053ZM18.449,13.502L22.894,4.66L21.107,3.761L16.662,12.603L18.449,13.502ZM22,3.211L4.667,3.211L4.667,5.211L22,5.211L22,3.211ZM7.425,12.855L5.647,4.013L3.686,4.408L5.464,13.25L7.425,12.855ZM5.739,12.344L3.191,14.878L4.602,16.296L7.15,13.762L5.739,12.344ZM3.191,14.878C1.851,16.211 2.811,18.474 4.682,18.474L4.682,16.474C4.642,16.474 4.626,16.464 4.617,16.458C4.605,16.449 4.589,16.432 4.579,16.407C4.568,16.382 4.568,16.36 4.57,16.347C4.571,16.34 4.575,16.323 4.602,16.296L3.191,14.878ZM4.682,18.474L17.556,18.474L17.556,16.474L4.682,16.474L4.682,18.474ZM18.556,17.474C18.556,16.81 19.098,16.263 19.778,16.263L19.778,14.263C18.003,14.263 16.556,15.695 16.556,17.474L18.556,17.474ZM19.778,16.263C20.458,16.263 21,16.81 21,17.474L23,17.474C23,15.695 21.552,14.263 19.778,14.263L19.778,16.263ZM21,17.474C21,18.137 20.458,18.684 19.778,18.684L19.778,20.684C21.552,20.684 23,19.252 23,17.474L21,17.474ZM20.483,18.975L18.261,16.765L16.85,18.183L19.073,20.393L20.483,18.975ZM9.532,20.186C9.807,19.712 10.371,19.477 10.909,19.62L11.424,17.688C10.019,17.313 8.532,17.923 7.802,19.182L9.532,20.186ZM10.909,19.62C11.446,19.764 11.813,20.245 11.813,20.789L13.813,20.789C13.813,19.333 12.83,18.063 11.424,17.688L10.909,19.62ZM11.813,20.789C11.813,21.334 11.446,21.815 10.909,21.958L11.424,23.891C12.83,23.516 13.813,22.246 13.813,20.789L11.813,20.789ZM10.909,21.958C10.371,22.102 9.807,21.867 9.532,21.393L7.802,22.397C8.532,23.655 10.019,24.265 11.424,23.891L10.909,21.958ZM9.667,21.895L9.667,19.684L7.667,19.684L7.667,21.895L9.667,21.895Z" style="fill:rgb(247,105,0);fill-rule:nonzero;"/>
</svg>
