<?xml version="1.0" encoding="utf-8"?>
<!-- Generator: Adobe Illustrator 26.0.3, SVG Export Plug-In . SVG Version: 6.00 Build 0)  -->
<svg version="1.1" id="Logo_Layer" xmlns="http://www.w3.org/2000/svg" xmlns:xlink="http://www.w3.org/1999/xlink" x="0px" y="0px"
	 viewBox="0 0 294.3 218.4" style="enable-background:new 0 0 294.3 218.4;" xml:space="preserve">
<style type="text/css">
	.st0{fill:#0D47A1;}
	.st1{fill:#F76900;}
	.st2{fill:#FFFFFF;}
	.st3{fill:#1F48A2;}
</style>
<path id="BLUE_SHAPE" class="st0" d="M0,175V41C0,21,16.8,0,43.3,0h209.1c21.5,0,41.5,18.2,42,41.4v133.3
	c0,17.7-12.2,43.7-43.7,43.7H41.9C23.8,218.4,0,203.8,0,175z"/>
<path id="ORANGE_SHAPE" class="st1" d="M10.5,169.2v5.9c0,23,18.7,32.8,32.2,32.8h206.6c23,0,34.3-16.5,34.3-33.1v-5.5L10.5,169.2
	L10.5,169.2z"/>
<path id="WHITE_SHAPE" class="st2" d="M283.7,158.7V41.2c0-17.1-15.9-31-31.5-31H41.8c-17.2,0-31.2,15.1-31.2,32.2v116.2
	L283.7,158.7L283.7,158.7z"/>
<g id="CUESTA_MENOS">
	<path class="st2" d="M47.6,190.4l6.1,0.7c-0.3,1.3-0.9,2.4-1.6,3.3c-0.8,0.9-1.7,1.6-2.9,2.1s-2.7,0.8-4.5,0.8s-3.2-0.2-4.4-0.5
		s-2.2-0.9-3-1.6c-0.8-0.7-1.5-1.6-2-2.6s-0.7-2.3-0.7-3.9c0-1.7,0.3-3.1,0.9-4.3c0.4-0.8,1-1.6,1.8-2.2c0.7-0.7,1.5-1.1,2.3-1.5
		c1.2-0.5,2.8-0.8,4.8-0.8c2.7,0,4.8,0.5,6.2,1.4c1.4,1,2.4,2.4,3,4.2l-6,0.8c-0.2-0.7-0.5-1.3-1-1.6c-0.5-0.4-1.2-0.5-2-0.5
		c-1.1,0-1.9,0.4-2.6,1.1c-0.7,0.8-1,1.9-1,3.4c0,1.4,0.3,2.4,1,3.1c0.6,0.7,1.5,1.1,2.5,1.1c0.8,0,1.5-0.2,2.1-0.6
		C46.9,191.9,47.3,191.2,47.6,190.4z"/>
	<path class="st2" d="M72.4,196.8h-5.9v-2.7c-0.9,1.1-1.8,1.9-2.7,2.4c-0.9,0.5-2,0.7-3.3,0.7c-1.8,0-3.1-0.5-4.1-1.6
		c-1-1-1.5-2.7-1.5-4.8v-10.6h6.4v9.1c0,1,0.2,1.8,0.6,2.2c0.4,0.4,0.9,0.7,1.6,0.7c0.8,0,1.4-0.3,1.9-0.9c0.5-0.6,0.7-1.6,0.7-3.1
		v-8h6.3V196.8z"/>
	<path class="st2" d="M80.3,187.1c0.1-1,0.4-1.7,0.7-2.2c0.6-0.8,1.4-1.2,2.4-1.2c0.9,0,1.6,0.3,2.1,0.8s0.9,1.4,1,2.6L80.3,187.1
		L80.3,187.1z M93.1,189.4c0-2.2-0.4-4-1.1-5.3c-0.7-1.4-1.8-2.4-3.1-3.1c-1.4-0.7-3.3-1.1-5.6-1.1c-2.9,0-5.2,0.8-6.9,2.4
		c-1.7,1.6-2.5,3.7-2.5,6.3c0,1.8,0.4,3.4,1.2,4.8c0.8,1.4,1.9,2.3,3.1,2.9c1.3,0.6,3,0.9,5.2,0.9c2.5,0,4.5-0.4,5.8-1.1
		c1.4-0.7,2.5-1.9,3.5-3.6l-6.3-0.6c-0.4,0.5-0.8,0.9-1.1,1.1c-0.6,0.3-1.2,0.5-1.8,0.5c-1,0-1.8-0.4-2.4-1.1
		c-0.4-0.5-0.7-1.3-0.8-2.3h12.8C93.1,190.1,93.1,189.4,93.1,189.4z"/>
	<path class="st2" d="M93.2,192.2l6.3-0.6c0.3,0.7,0.6,1.3,1.1,1.6s1.1,0.5,1.9,0.5c0.9,0,1.5-0.2,2-0.5c0.4-0.3,0.5-0.6,0.5-1
		c0-0.5-0.2-0.8-0.7-1.1c-0.3-0.2-1.3-0.4-2.7-0.7c-2.2-0.4-3.7-0.7-4.6-1.1c-0.9-0.3-1.6-0.9-2.2-1.7s-0.9-1.7-0.9-2.7
		c0-1.1,0.3-2,1-2.8c0.6-0.8,1.5-1.4,2.6-1.8c1.1-0.4,2.6-0.6,4.5-0.6c2,0,3.4,0.2,4.4,0.5c0.9,0.3,1.7,0.8,2.4,1.4
		c0.6,0.6,1.2,1.5,1.6,2.6l-6.1,0.6c-0.2-0.5-0.4-0.9-0.8-1.2c-0.5-0.3-1.1-0.5-1.8-0.5c-0.7,0-1.2,0.1-1.6,0.4
		c-0.3,0.3-0.5,0.6-0.5,0.9c0,0.4,0.2,0.7,0.6,0.9s1.3,0.4,2.7,0.6c2.1,0.2,3.7,0.6,4.7,1s1.8,1,2.4,1.8c0.5,0.8,0.8,1.7,0.8,2.6
		c0,1-0.3,1.9-0.9,2.8c-0.6,0.9-1.5,1.6-2.7,2.2c-1.2,0.5-2.9,0.8-5.1,0.8c-3,0-5.2-0.4-6.5-1.3C94.4,195.1,93.6,193.8,93.2,192.2z"
		/>
	<path class="st2" d="M119.9,173.9v6.3h3.5v4.6h-3.5v5.9c0,0.7,0.1,1.2,0.2,1.4c0.2,0.4,0.6,0.5,1.1,0.5s1.1-0.1,2-0.4l0.5,4.4
		c-1.6,0.3-3,0.5-4.4,0.5c-1.6,0-2.8-0.2-3.5-0.6c-0.8-0.4-1.3-1-1.7-1.8c-0.4-0.8-0.5-2.2-0.5-4v-5.8h-2.4v-4.6h2.4v-3L119.9,173.9
		z"/>
	<path class="st2" d="M136.1,190c0,0.8-0.1,1.4-0.4,1.9c-0.3,0.5-0.7,0.9-1.3,1.3c-0.6,0.3-1.3,0.5-2,0.5s-1.2-0.2-1.5-0.5
		s-0.5-0.7-0.5-1.2c0-0.4,0.2-0.8,0.5-1.2c0.3-0.3,1.2-0.7,2.4-1c0.9-0.2,1.8-0.5,2.7-0.8v1H136.1z M131.6,184.2
		c0.5-0.3,1.3-0.5,2.3-0.5c0.8,0,1.4,0.2,1.7,0.5s0.5,0.9,0.5,1.6c-0.8,0.3-1.5,0.6-2.2,0.8s-2.3,0.5-4.6,1c-2,0.4-3.3,1-4.1,1.8
		c-0.7,0.8-1.1,1.9-1.1,3.1c0,1.3,0.5,2.5,1.5,3.4s2.5,1.4,4.5,1.4c1.5,0,2.8-0.2,3.9-0.7c0.8-0.3,1.6-0.9,2.5-1.7
		c0.1,0.5,0.1,0.8,0.2,1.1c0.1,0.2,0.2,0.5,0.5,1h6c-0.3-0.7-0.5-1.2-0.6-1.7c-0.1-0.4-0.1-1.1-0.1-1.8V186c0-0.8-0.2-1.6-0.5-2.5
		s-0.7-1.5-1.3-2c-0.8-0.7-1.7-1.1-2.9-1.3s-2.7-0.3-4.6-0.3c-1.2,0-2.3,0.1-3.3,0.3s-1.8,0.4-2.4,0.8c-0.8,0.4-1.4,1-1.9,1.6
		c-0.4,0.6-0.8,1.4-1,2.5l6.1,0.7C130.9,184.9,131.2,184.4,131.6,184.2z"/>
	<path class="st2" d="M153.6,180.3h6v2.4c0.9-1,1.7-1.7,2.6-2.1c0.9-0.4,1.9-0.6,3.2-0.6s2.4,0.2,3.2,0.7s1.4,1.2,1.9,2.1
		c1-1.1,1.9-1.8,2.7-2.2s1.8-0.6,3-0.6c1.8,0,3.2,0.5,4.2,1.6s1.5,2.7,1.5,5V197h-6.4v-9.5c0-0.8-0.1-1.3-0.4-1.7
		c-0.4-0.6-1-0.9-1.6-0.9c-0.7,0-1.4,0.3-1.8,0.8c-0.5,0.5-0.7,1.4-0.7,2.6v8.6h-6.4v-9.1c0-0.7,0-1.2-0.1-1.5
		c-0.1-0.4-0.4-0.8-0.7-1c-0.3-0.3-0.7-0.4-1.2-0.4c-0.7,0-1.3,0.3-1.8,0.8c-0.5,0.6-0.7,1.5-0.7,2.7v8.5h-6.4v-16.6L153.6,180.3
		L153.6,180.3z"/>
	<path class="st2" d="M189.6,187.1c0.1-1,0.3-1.7,0.7-2.2c0.6-0.8,1.4-1.2,2.4-1.2c0.9,0,1.6,0.3,2.1,0.8s0.9,1.4,1,2.6L189.6,187.1
		L189.6,187.1z M202.3,189.4c0-2.2-0.4-4-1.1-5.3c-0.7-1.4-1.8-2.4-3.1-3.1c-1.4-0.7-3.3-1.1-5.6-1.1c-2.9,0-5.2,0.8-6.9,2.4
		c-1.7,1.6-2.5,3.7-2.5,6.3c0,1.8,0.4,3.4,1.2,4.8c0.8,1.4,1.9,2.3,3.1,2.9c1.3,0.6,3,0.9,5.2,0.9c2.5,0,4.5-0.4,5.8-1.1
		c1.4-0.7,2.5-1.9,3.5-3.6l-6.3-0.6c-0.4,0.5-0.8,0.9-1.1,1.1c-0.6,0.3-1.2,0.5-1.8,0.5c-1,0-1.8-0.4-2.4-1.1
		c-0.4-0.5-0.7-1.3-0.8-2.3h12.8L202.3,189.4L202.3,189.4z"/>
	<path class="st2" d="M203.6,180.3h5.9v2.7c0.9-1.1,1.8-1.9,2.7-2.4s2-0.7,3.3-0.7c1.8,0,3.2,0.5,4.2,1.6c1,1,1.5,2.7,1.5,4.8v10.5
		h-6.4v-9.1c0-1-0.2-1.8-0.6-2.2c-0.4-0.4-0.9-0.6-1.6-0.6c-0.8,0-1.4,0.3-1.9,0.9c-0.5,0.6-0.7,1.6-0.7,3.1v8h-6.3L203.6,180.3
		L203.6,180.3z"/>
	<path class="st2" d="M229.8,185.3c0.6-0.7,1.4-1.1,2.3-1.1c0.9,0,1.6,0.4,2.2,1.1c0.6,0.7,0.9,1.8,0.9,3.2c0,1.5-0.3,2.7-0.9,3.4
		c-0.6,0.7-1.3,1-2.2,1s-1.7-0.4-2.2-1.1c-0.6-0.7-0.9-1.8-0.9-3.3C228.9,187.1,229.2,186,229.8,185.3z M225.6,195.2
		c1.6,1.3,3.8,2,6.5,2c3,0,5.3-0.8,7-2.4c1.7-1.6,2.5-3.7,2.5-6.3c0-2.3-0.7-4.2-2-5.7c-1.7-1.9-4.2-2.9-7.5-2.9
		c-2.9,0-5.2,0.8-6.9,2.5c-1.7,1.6-2.6,3.7-2.6,6.3C222.5,191.3,223.5,193.5,225.6,195.2z"/>
	<path class="st2" d="M241.9,192.2l6.3-0.6c0.3,0.7,0.6,1.3,1.1,1.6s1.1,0.5,1.9,0.5c0.9,0,1.5-0.2,2-0.5c0.4-0.3,0.5-0.6,0.5-1
		c0-0.5-0.2-0.8-0.7-1.1c-0.3-0.2-1.3-0.4-2.7-0.7c-2.2-0.4-3.7-0.7-4.6-1.1c-0.9-0.3-1.6-0.9-2.2-1.7c-0.6-0.8-0.9-1.7-0.9-2.7
		c0-1.1,0.3-2,1-2.8c0.6-0.8,1.5-1.4,2.6-1.8c1.1-0.4,2.6-0.6,4.5-0.6c2,0,3.4,0.2,4.4,0.5c0.9,0.3,1.7,0.8,2.4,1.4
		c0.6,0.6,1.2,1.5,1.6,2.6l-6.1,0.6c-0.2-0.5-0.4-0.9-0.8-1.2c-0.5-0.3-1.1-0.5-1.8-0.5s-1.2,0.1-1.6,0.4c-0.3,0.3-0.5,0.6-0.5,0.9
		c0,0.4,0.2,0.7,0.6,0.9c0.4,0.2,1.3,0.4,2.7,0.6c2.1,0.2,3.7,0.6,4.7,1s1.8,1,2.4,1.8c0.5,0.8,0.8,1.7,0.8,2.6c0,1-0.3,1.9-0.9,2.8
		c-0.6,0.9-1.5,1.6-2.7,2.2c-1.2,0.5-2.9,0.8-5.1,0.8c-3,0-5.2-0.4-6.5-1.3C243.1,195.1,242.2,193.8,241.9,192.2z"/>
</g>
<g id="CHEDRAUI">
	<path class="st0" d="M58.1,148c0,0-19.5,0-20.6,0c-2.8-0.1-4.9-1.7-4.9-5c0-0.8,0-6.5,0-7.9c0-2.5,1.9-4.5,5.1-4.5
		c1.1,0,20.4,0,20.4,0v4.3c0,0-20.4,0-20.7,0c-0.6,0-0.6,0.4-0.6,0.8c0,0.4,0,7.2,0,7.5c0,0.4,0.2,0.5,0.6,0.5c0.4,0,20.6,0,20.6,0
		L58.1,148L58.1,148z"/>
	<polygon class="st0" points="85.7,148 85.7,141.4 68.6,141.4 68.6,148 64.4,148 64.4,130.6 68.6,130.6 68.6,137.2 85.7,137.2 
		85.7,130.6 90,130.6 90,148 	"/>
	<polygon class="st0" points="122.2,143.7 100.8,143.7 100.8,141.5 122.2,141.5 122.2,137.2 100.8,137.2 100.8,134.9 122.2,134.9 
		122.2,130.6 96.5,130.6 96.5,148 122.2,148 	"/>
	<path class="st0" d="M149.2,130.6c-1.8,0-20.6,0-20.6,0V148c0,0,19.8,0,21.2,0c2.3,0,4.6-1.9,4.6-3.9c0-1.6,0-7.2,0-9
		C154.3,132.5,151.7,130.6,149.2,130.6z M150,143.7h-17.2v-8.8H150V143.7z"/>
	<path class="st0" d="M186.7,134.9c-0.1-2.6-2.4-4.3-4.5-4.3c-1.1,0-21.5,0-21.5,0V148h4.2v-5.1c0,0,16,0,16.6,0s0.8,0.3,0.8,0.9
		c0,0.8,0,4.1,0,4.1h4.3c0,0,0-4.3,0-5.1c0-1-0.5-1.8-1-2.2c0.3-0.3,1-1,1-1.8C186.7,138.1,186.7,135.6,186.7,134.9z M182.3,138.7
		h-17.5v-3.8h17.5V138.7z"/>
	<path class="st0" d="M209.4,130.7h-6.5L189.8,148h5.3l2.7-3.4h16.7l2.7,3.4h5.3L209.4,130.7z M201,140.4l4-5.5h2.2l4,5.5H201z"/>
	<polygon class="st0" points="257.5,148 257.5,130.6 261.7,130.6 261.7,148 	"/>
	<path class="st0" d="M229.9,130.6v13.1h17.5v-13.1h4.3c0,0,0,11.6,0,13.1c0,1.9-1.3,4.3-4.6,4.3c-1.7,0-15.7,0-17.2,0
		c-2.1,0-4.4-2.3-4.3-4.6c0-0.6,0-12.8,0-12.8H229.9z"/>
</g>
<g id="FAMILY">
	<polygon class="st1" points="121.8,50.6 134.9,50.6 145.4,61 145.4,74.3 	"/>
	<polygon class="st1" points="121.4,54.1 121.4,87.9 139.4,87.9 139.4,72 	"/>
	<polygon class="st1" points="148.1,60.1 160.5,60.1 184,84 171.5,84 	"/>
	<polygon class="st1" points="91.5,77.3 104.5,77.3 117.3,90.7 111,97.3 	"/>
	<polygon class="st1" points="147.8,63.5 164.2,80.4 164.2,95.6 135.9,95.6 147.8,83.6 	"/>
	<polygon class="st1" points="91.3,80.4 91.3,103.4 105,103.4 105,95 	"/>
	<polygon class="st1" points="91,105.7 102.4,105.7 82.9,124.5 71.8,124.5 	"/>
	<polygon class="st1" points="121.2,90.8 136.9,90.8 102.1,124.5 86.8,124.5 	"/>
	<polygon class="st1" points="120.4,124.5 133.8,124.5 155.9,103.2 177,124.5 189.9,124.5 164.2,98 147.8,98 	"/>
	<path class="st1" d="M183.9,88.7h4.7c0,0,1.5,7.1,1.9,8.8c0.4,1.7,0.7,3.7,4.1,3.7c2.7,0,24.5,0,24.5,0v14c0,0-13.3,0-20,0
		c-5.8,0-10.5-3.6-11.8-10.6C186.4,100,183.9,88.7,183.9,88.7z"/>
	<ellipse class="st1" cx="155.9" cy="48.6" rx="10.2" ry="10.2"/>
	<ellipse class="st1" cx="98.6" cy="66" rx="9.6" ry="9.6"/>
	<circle class="st1" cx="178.2" cy="88.6" r="3.1"/>
	<ellipse class="st1" cx="198" cy="88.7" rx="7.1" ry="7.1"/>
	<circle class="st1" cx="198.2" cy="121" r="3.9"/>
	<circle class="st1" cx="214.1" cy="121" r="3.9"/>
	<ellipse class="st1" cx="130.6" cy="37.7" rx="11" ry="11"/>
</g>
<g>
	<path class="st3" d="M266.3,143.2c-1.3,0-2.5,1-2.5,2.4s1.1,2.4,2.5,2.4c1.3,0,2.4-1,2.4-2.4C268.7,144.3,267.6,143.2,266.3,143.2z
		 M266.3,147.7c-1.1,0-2-0.9-2-2s0.9-2,2-2s2,0.9,2,2S267.4,147.7,266.3,147.7z"/>
	<path class="st3" d="M267.4,145c0-0.5-0.3-0.8-1-0.8h-1.1v2.8h0.4v-1.2h0.5l0.7,1.2h0.5l-0.8-1.2
		C267.1,145.8,267.4,145.5,267.4,145z M265.8,145.5v-0.9h0.6c0.3,0,0.6,0.1,0.6,0.4c0,0.4-0.3,0.5-0.7,0.5H265.8z"/>
</g>
</svg>
